HIERARCHY
ROOT Hips
{
	OFFSET 0.000000 121.760803 0.000000
	CHANNELS 6 Xposition Yposition Zposition Xrotation Yrotation Zrotation 
	JOINT Spine
	{
		OFFSET 0.072000 7.257294 -0.789700
		CHANNELS 3 Xrotation Yrotation Zrotation
		JOINT Spine1
		{
			OFFSET 0.000000 12.508769 -0.658067
			CHANNELS 3 Xrotation Yrotation Zrotation
			JOINT Spine1_split
			{
				OFFSET 0.000000 12.508769 -0.658067
				CHANNELS 3 Xrotation Yrotation Zrotation
				JOINT Spine2
				{
					OFFSET 0.000000 12.508769 -0.658067
					CHANNELS 3 Xrotation Yrotation Zrotation
					JOINT Neck
					{
						OFFSET 0.000000 14.033295 7.520400
						CHANNELS 3 Xrotation Yrotation Zrotation
						JOINT Head
						{
							OFFSET 0.000000 8.198502 5.703100
							CHANNELS 3 Xrotation Yrotation Zrotation
							JOINT HeadTop_End
							{
								OFFSET 0.000000 17.760803 13.332701
								CHANNELS 3 Xrotation Yrotation Zrotation
								End Site
								{
									OFFSET 0.000000 0.000000 0.000000
								}
							}
						}
					}
					JOINT LeftShoulder
					{
						OFFSET 6.292450 5.785301 -0.669000
						CHANNELS 3 Xrotation Yrotation Zrotation
						JOINT LeftShoulder_split
						{
							OFFSET 6.292450 5.785301 -0.669000
							CHANNELS 3 Xrotation Yrotation Zrotation
							JOINT LeftArm
							{
								OFFSET 13.907140 -6.093903 1.965100
								CHANNELS 3 Xrotation Yrotation Zrotation
								JOINT LeftForeArm
								{
									OFFSET 34.140198 0.000000 0.000000
									CHANNELS 3 Xrotation Yrotation Zrotation
									JOINT LeftHand
									{
										OFFSET 40.960209 0.000000 0.000000
										CHANNELS 3 Xrotation Yrotation Zrotation
										JOINT LeftHandThumb1
										{
											OFFSET 10.006996 -7.170425 9.573125
											CHANNELS 3 Xrotation Yrotation Zrotation
											JOINT LeftHandThumb2
											{
												OFFSET 1.835007 -1.059448 1.059443
												CHANNELS 3 Xrotation Yrotation Zrotation
												JOINT LeftHandThumb3
												{
													OFFSET 2.112267 -1.219513 1.219518
													CHANNELS 3 Xrotation Yrotation Zrotation
													JOINT LeftHandThumb4
													{
														OFFSET 4.843811 -2.796570 2.796576
														CHANNELS 3 Xrotation Yrotation Zrotation
														End Site
														{
															OFFSET 0.000000 0.000000 0.000000
														}
													}
												}
											}
										}
										JOINT LeftHandIndex1
										{
											OFFSET 18.389847 -0.922348 4.596882
											CHANNELS 3 Xrotation Yrotation Zrotation
											JOINT LeftHandIndex2
											{
												OFFSET 4.711273 0.000000 0.000000
												CHANNELS 3 Xrotation Yrotation Zrotation
												JOINT LeftHandIndex3
												{
													OFFSET 2.886131 0.000000 0.000000
													CHANNELS 3 Xrotation Yrotation Zrotation
													JOINT LeftHandIndex4
													{
														OFFSET 6.145912 0.000000 0.000000
														CHANNELS 3 Xrotation Yrotation Zrotation
														End Site
														{
															OFFSET 0.000000 0.000000 0.000000
														}
													}
												}
											}
										}
										JOINT LeftHandMiddle1
										{
											OFFSET 18.013008 0.000000 0.000000
											CHANNELS 3 Xrotation Yrotation Zrotation
											JOINT LeftHandMiddle2
											{
												OFFSET 4.946693 0.000000 0.000000
												CHANNELS 3 Xrotation Yrotation Zrotation
												JOINT LeftHandMiddle3
												{
													OFFSET 3.342232 0.000000 0.000000
													CHANNELS 3 Xrotation Yrotation Zrotation
													JOINT LeftHandMiddle4
													{
														OFFSET 4.461754 0.000000 0.000000
														CHANNELS 3 Xrotation Yrotation Zrotation
														End Site
														{
															OFFSET 0.000000 0.000000 0.000000
														}
													}
												}
											}
										}
										JOINT LeftHandRing1
										{
											OFFSET 15.849892 -0.102921 -4.126150
											CHANNELS 3 Xrotation Yrotation Zrotation
											JOINT LeftHandRing2
											{
												OFFSET 3.527054 0.000000 0.000000
												CHANNELS 3 Xrotation Yrotation Zrotation
												JOINT LeftHandRing3
												{
													OFFSET 2.961098 0.000000 0.000000
													CHANNELS 3 Xrotation Yrotation Zrotation
													JOINT LeftHandRing4
													{
														OFFSET 4.927200 0.000000 0.000000
														CHANNELS 3 Xrotation Yrotation Zrotation
														End Site
														{
															OFFSET 0.000000 0.000000 0.000000
														}
													}
												}
											}
										}
										JOINT LeftHandPinky1
										{
											OFFSET 12.791824 -0.832031 -6.799156
											CHANNELS 3 Xrotation Yrotation Zrotation
											JOINT LeftHandPinky2
											{
												OFFSET 3.327133 0.000000 0.000000
												CHANNELS 3 Xrotation Yrotation Zrotation
												JOINT LeftHandPinky3
												{
													OFFSET 3.014900 0.000000 0.000000
													CHANNELS 3 Xrotation Yrotation Zrotation
													JOINT LeftHandPinky4
													{
														OFFSET 5.847786 0.000000 0.000000
														CHANNELS 3 Xrotation Yrotation Zrotation
														End Site
														{
															OFFSET 0.000000 0.000000 0.000000
														}
													}
												}
											}
										}
									}
								}
							}
						}
					}
					JOINT RightShoulder
					{
						OFFSET -6.292450 5.785301 -0.669000
						CHANNELS 3 Xrotation Yrotation Zrotation
						JOINT RightShoulder_split
						{
							OFFSET -6.292450 5.785301 -0.669000
							CHANNELS 3 Xrotation Yrotation Zrotation
							JOINT RightArm
							{
								OFFSET -13.907140 -6.093903 1.965100
								CHANNELS 3 Xrotation Yrotation Zrotation
								JOINT RightForeArm
								{
									OFFSET -34.140198 0.000000 0.000000
									CHANNELS 3 Xrotation Yrotation Zrotation
									JOINT RightHand
									{
										OFFSET -40.960209 0.000000 0.000000
										CHANNELS 3 Xrotation Yrotation Zrotation
										JOINT RightHandThumb1
										{
											OFFSET -10.007050 -7.170456 9.573117
											CHANNELS 3 Xrotation Yrotation Zrotation
											JOINT RightHandThumb2
											{
												OFFSET -1.835007 -1.059448 1.059443
												CHANNELS 3 Xrotation Yrotation Zrotation
												JOINT RightHandThumb3
												{
													OFFSET -2.112267 -1.219513 1.219518
													CHANNELS 3 Xrotation Yrotation Zrotation
													JOINT RightHandThumb4
													{
														OFFSET -4.843834 -2.796585 2.796590
														CHANNELS 3 Xrotation Yrotation Zrotation
														End Site
														{
															OFFSET 0.000000 0.000000 0.000000
														}
													}
												}
											}
										}
										JOINT RightHandIndex1
										{
											OFFSET -18.389870 -0.922424 4.596786
											CHANNELS 3 Xrotation Yrotation Zrotation
											JOINT RightHandIndex2
											{
												OFFSET -4.711273 0.000000 0.000000
												CHANNELS 3 Xrotation Yrotation Zrotation
												JOINT RightHandIndex3
												{
													OFFSET -2.886131 0.000000 0.000000
													CHANNELS 3 Xrotation Yrotation Zrotation
													JOINT RightHandIndex4
													{
														OFFSET -6.145920 0.000000 0.000000
														CHANNELS 3 Xrotation Yrotation Zrotation
														End Site
														{
															OFFSET 0.000000 0.000000 0.000000
														}
													}
												}
											}
										}
										JOINT RightHandMiddle1
										{
											OFFSET -18.013008 0.000000 0.000000
											CHANNELS 3 Xrotation Yrotation Zrotation
											JOINT RightHandMiddle2
											{
												OFFSET -4.946693 0.000000 0.000000
												CHANNELS 3 Xrotation Yrotation Zrotation
												JOINT RightHandMiddle3
												{
													OFFSET -3.342232 0.000000 0.000000
													CHANNELS 3 Xrotation Yrotation Zrotation
													JOINT RightHandMiddle4
													{
														OFFSET -4.461754 0.000000 0.000000
														CHANNELS 3 Xrotation Yrotation Zrotation
														End Site
														{
															OFFSET 0.000000 0.000000 0.000000
														}
													}
												}
											}
										}
										JOINT RightHandRing1
										{
											OFFSET -15.849876 -0.102936 -4.126237
											CHANNELS 3 Xrotation Yrotation Zrotation
											JOINT RightHandRing2
											{
												OFFSET -3.527054 0.000000 0.000000
												CHANNELS 3 Xrotation Yrotation Zrotation
												JOINT RightHandRing3
												{
													OFFSET -2.961098 0.000000 0.000000
													CHANNELS 3 Xrotation Yrotation Zrotation
													JOINT RightHandRing4
													{
														OFFSET -4.927200 0.000000 0.000000
														CHANNELS 3 Xrotation Yrotation Zrotation
														End Site
														{
															OFFSET 0.000000 0.000000 0.000000
														}
													}
												}
											}
										}
										JOINT RightHandPinky1
										{
											OFFSET -12.791786 -0.832077 -6.799222
											CHANNELS 3 Xrotation Yrotation Zrotation
											JOINT RightHandPinky2
											{
												OFFSET -3.327133 0.000000 0.000000
												CHANNELS 3 Xrotation Yrotation Zrotation
												JOINT RightHandPinky3
												{
													OFFSET -3.014900 0.000000 0.000000
													CHANNELS 3 Xrotation Yrotation Zrotation
													JOINT RightHandPinky4
													{
														OFFSET -5.847786 0.000000 0.000000
														CHANNELS 3 Xrotation Yrotation Zrotation
														End Site
														{
															OFFSET 0.000000 0.000000 0.000000
														}
													}
												}
											}
										}
									}
								}
							}
						}
					}
				}
			}
		}
	}
	JOINT LeftUpLeg
	{
		OFFSET 13.026900 -6.336304 -1.092800
		CHANNELS 3 Xrotation Yrotation Zrotation
		JOINT LeftLeg
		{
			OFFSET 0.524474 -46.096886 9.782700
			CHANNELS 3 Xrotation Yrotation Zrotation
			JOINT LeftFoot
			{
				OFFSET -0.524474 -53.427422 -12.948200
				CHANNELS 3 Xrotation Yrotation Zrotation
				JOINT LeftToeBase
				{
					OFFSET 0.192200 -14.009700 16.364100
					CHANNELS 3 Xrotation Yrotation Zrotation
					JOINT LeftToe_End
					{
						OFFSET -1.784700 -0.561700 9.474800
						CHANNELS 3 Xrotation Yrotation Zrotation
						End Site
						{
							OFFSET 0.000000 0.000000 0.000000
						}
					}
				}
			}
		}
	}
	JOINT RightUpLeg
	{
		OFFSET -12.883000 -6.336304 -1.092800
		CHANNELS 3 Xrotation Yrotation Zrotation
		JOINT RightLeg
		{
			OFFSET -0.524587 -46.096825 9.782800
			CHANNELS 3 Xrotation Yrotation Zrotation
			JOINT RightFoot
			{
				OFFSET 0.524587 -53.427383 -12.948300
				CHANNELS 3 Xrotation Yrotation Zrotation
				JOINT RightToeBase
				{
					OFFSET -0.192200 -14.009700 16.364100
					CHANNELS 3 Xrotation Yrotation Zrotation
					JOINT RightToe_End
					{
						OFFSET 1.784700 -0.561700 9.474800
						CHANNELS 3 Xrotation Yrotation Zrotation
						End Site
						{
							OFFSET 0.000000 0.000000 0.000000
						}
					}
				}
			}
		}
	}
}
MOTION
Frames: 5
Frame Time: 0.016667
5.964539 66.834938 145.433121 25.966964 -55.547029 33.321129 36.061128 -2.708244 -12.852185 -1.957387 5.375158 -0.991198 0.000000 0.000000 0.000000 2.116137 5.078857 -0.821980 -12.375884 22.130633 -4.641761 -6.246896 18.672308 -15.900095 -0.000000 0.000000 0.000000 5.941488 -18.519090 -1.957342 0.000000 0.000000 0.000000 -27.184732 20.945573 -31.616355 -81.078273 -81.172625 -70.319851 19.572892 -8.968055 11.330318 -2.637058 -7.745167 8.357711 4.850455 25.883350 0.310214 5.029082 28.059115 14.418582 0.000000 -0.000000 0.000000 13.403492 -1.931353 -0.362584 -0.144260 0.314233 -46.537292 -0.125013 0.299269 -34.598952 -0.000005 -0.000000 0.000000 8.600802 -0.764880 -14.454864 0.337761 0.740991 -48.772919 0.367571 0.210463 -48.126582 0.000001 -0.000001 0.000001 6.268055 2.785877 -30.963092 0.134939 0.420929 -52.428139 0.396872 0.853301 -49.786089 -0.000000 0.000003 -0.000001 -5.507728 7.394411 -31.738793 0.325652 0.344486 -72.129243 0.274057 0.283237 -55.734689 -0.000001 0.000000 0.000001 0.012698 27.801544 18.707813 0.000000 0.000000 0.000000 -54.993893 -1.387940 14.818753 -31.712848 58.823023 27.684002 29.626700 11.680909 -21.865404 4.362873 -2.376073 -10.417854 6.382019 -22.873390 7.534685 4.855452 -25.932792 -12.746843 -0.000000 0.000001 0.000001 12.580737 5.223927 8.328367 -0.320479 -0.269466 55.178520 -0.229792 -0.205166 38.884704 -0.000003 0.000002 0.000000 6.735569 -0.416804 21.668218 0.630578 -0.710898 59.162730 0.526160 -0.129088 49.031001 -0.000002 0.000000 0.000001 3.077458 -6.824890 32.208706 0.532217 -0.321425 64.382190 0.525843 -0.784142 60.196971 -0.000001 0.000001 0.000000 -7.813628 -10.789243 40.442978 0.564460 -0.208623 85.786937 0.348604 -0.192184 50.601696 -0.000000 0.000001 -0.000000 -54.376956 -48.730524 44.725660 79.143751 -0.749439 -43.253826 -5.382805 -1.261088 -30.369166 -0.534201 1.617777 0.840868 0.000000 0.000002 -0.000000 -86.618349 28.567140 -18.924260 97.531010 7.813326 0.952719 -20.466575 -5.447581 18.040411 -0.384450 -1.379029 -0.725543 -0.000000 -0.000001 0.000000 
6.347889 67.082985 146.525299 27.647655 -56.022776 34.478334 35.742482 -3.003247 -14.284313 -2.211919 5.602699 -0.808057 0.000000 0.000000 0.000000 1.905239 5.369605 -0.299741 -12.094919 22.484185 -4.602862 -6.896197 18.777336 -15.089614 0.000001 0.000000 -0.000000 6.664349 -18.263917 -2.232507 0.000000 0.000000 0.000000 -27.495664 17.707786 -32.135125 -65.949397 -80.866598 -55.485390 19.983568 -7.423068 10.194810 -2.565573 -7.754367 8.363827 4.988665 26.393929 0.484757 5.024887 28.382264 14.577731 -0.000000 0.000002 -0.000000 13.409939 -1.900493 -2.024955 -0.142136 0.315770 -49.012317 -0.122609 0.301058 -37.263852 -0.000000 -0.000000 -0.000000 8.587738 -0.735831 -16.027771 0.347283 0.750549 -51.229386 0.381296 0.223171 -50.966919 0.000001 -0.000002 0.000001 6.254699 2.818128 -32.426036 0.146165 0.429325 -54.763586 0.412251 0.865585 -52.607490 -0.000001 0.000001 0.000002 -5.551643 7.431835 -32.962418 0.336796 0.347403 -74.252503 0.287106 0.290979 -58.486343 -0.000002 -0.000002 -0.000000 0.392906 28.446681 18.972631 0.000000 0.000000 0.000000 -54.816909 -0.739638 15.725256 -32.159553 59.955708 28.371993 30.216545 9.118566 -21.036114 4.934230 -2.758365 -10.624083 6.709268 -23.370554 7.689436 5.057491 -28.342862 -13.846362 0.000001 -0.000001 0.000000 12.835074 4.880025 10.435489 -0.342461 -0.295550 58.867044 -0.249764 -0.219142 41.608846 0.000001 -0.000000 -0.000001 6.540496 -0.366053 24.090055 0.670352 -0.689409 62.625718 0.555689 -0.116267 51.572201 -0.000003 0.000001 0.000001 2.533743 -6.923161 34.344384 0.559760 -0.307381 67.256388 0.552939 -0.769924 63.039511 -0.000003 -0.000000 -0.000000 -8.870811 -11.299478 42.195785 0.584063 -0.186651 88.957927 0.362391 -0.185846 52.472054 -0.000000 0.000001 0.000000 -54.028214 -48.694970 45.899281 79.970122 -1.115299 -44.167008 -6.074101 -1.355008 -29.598860 -0.515854 1.600616 0.840537 0.000000 -0.000003 -0.000000 -86.639119 28.805957 -19.059254 96.492084 7.909368 0.946168 -20.116476 -5.043022 18.865059 -0.381440 -1.361515 -0.730227 -0.000000 0.000000 0.000000 
6.576286 67.520676 147.531265 28.697494 -56.291451 35.393193 35.072137 -3.271064 -15.764345 -2.135792 5.671956 -0.623130 0.000000 0.000000 0.000000 1.911755 5.457661 0.250404 -12.116943 22.696510 -4.358113 -7.303193 18.909088 -14.670551 0.000001 -0.000000 -0.000000 7.124628 -18.651624 -2.187860 0.000000 0.000000 0.000000 -27.932330 15.768871 -32.151951 -52.503917 -79.963641 -42.362882 19.874061 -6.198303 8.772599 -2.494165 -7.763593 8.369867 5.113614 26.867037 0.645993 5.019990 28.690736 14.730199 -0.000000 -0.000001 -0.000000 13.421737 -1.871646 -3.652796 -0.140173 0.317277 -51.493923 -0.120390 0.302998 -40.006132 -0.000003 -0.000000 0.000001 8.575924 -0.708619 -17.530010 0.357464 0.759461 -53.634296 0.396388 0.235105 -53.814907 0.000001 0.000001 -0.000002 6.241562 2.849671 -33.783004 0.157182 0.436972 -56.993359 0.428594 0.876636 -55.369700 0.000000 0.000001 -0.000001 -5.594994 7.468754 -34.051164 0.347443 0.349658 -76.219748 0.300155 0.297605 -61.113432 -0.000001 0.000002 -0.000002 0.481424 28.460034 19.320850 0.000000 0.000000 0.000000 -54.296251 -0.269339 17.138953 -33.555852 61.774758 30.127254 31.259546 6.241256 -19.766158 5.449427 -3.079954 -10.807718 7.007115 -23.827953 7.829289 5.207857 -30.639225 -14.907378 0.000000 -0.000002 -0.000000 13.115576 4.577887 12.470369 -0.362180 -0.324238 62.492727 -0.269142 -0.235270 44.348148 -0.000002 0.000000 0.000000 6.340845 -0.331184 26.374431 0.707232 -0.664507 65.968863 0.584152 -0.100884 54.085826 0.000002 0.000001 0.000001 2.011716 -7.073383 36.304778 0.584423 -0.291961 69.957516 0.578156 -0.753617 65.783321 0.000001 -0.000001 0.000001 -9.826582 -11.857194 43.720007 0.600174 -0.164832 91.846408 0.375069 -0.178853 54.245547 0.000001 -0.000002 -0.000001 -53.708749 -48.707708 46.177755 80.615220 -1.106876 -44.983636 -6.756103 -1.334092 -29.022556 -0.499324 1.583552 0.840263 0.000000 0.000001 -0.000000 -86.165432 28.816712 -19.578983 95.476824 7.857976 0.658698 -19.984560 -4.586418 19.550481 -0.378295 -1.344239 -0.734738 -0.000000 0.000000 -0.000000 
6.857090 68.063759 148.477005 29.191740 -56.167094 35.587591 34.181036 -3.391845 -16.337164 -1.873230 5.586126 -0.555367 0.000000 0.000000 0.000000 2.077618 5.368867 0.484113 -12.370048 22.770476 -4.044475 -7.971457 19.199334 -14.250019 0.000001 -0.000000 -0.000001 6.965538 -19.294369 -2.102319 0.000000 0.000000 0.000000 -28.134859 15.072525 -32.000529 -44.720886 -79.216930 -34.966006 19.735951 -4.859227 6.786331 -2.423057 -7.772817 8.375886 5.223516 27.295343 0.791262 5.014503 28.980230 14.873849 0.000000 0.000002 -0.000000 13.438332 -1.845268 -5.224451 -0.138561 0.318792 -53.948878 -0.118368 0.305093 -42.787235 -0.000000 0.000002 0.000001 8.565225 -0.683855 -18.940733 0.367942 0.767627 -55.955413 0.412648 0.245976 -56.632213 0.000000 0.000000 -0.000002 6.228792 2.879354 -35.013537 0.167734 0.443771 -59.086382 0.445516 0.886309 -58.035687 0.000001 0.000000 -0.000000 -5.635512 7.502935 -34.986182 0.357217 0.351379 -78.001259 0.312948 0.303166 -63.579417 -0.000002 0.000001 0.000002 0.326738 28.032102 19.689724 0.000000 0.000000 0.000000 -54.046064 0.106966 18.102730 -34.543128 63.125592 31.386417 32.050495 4.260140 -17.576669 5.901728 -3.333586 -10.969728 7.271091 -24.239517 7.950928 5.309803 -32.795211 -15.919955 -0.000000 -0.000001 0.000000 13.414725 4.320669 14.409768 -0.379314 -0.354836 66.014892 -0.287455 -0.253337 47.072349 0.000005 0.000001 -0.000002 6.140131 -0.310643 28.493886 0.740356 -0.636866 69.154415 0.611025 -0.083378 56.545763 0.000001 0.000000 0.000001 1.519325 -7.265433 38.063019 0.606020 -0.275889 72.451846 0.601160 -0.735630 68.397064 0.000002 -0.000000 0.000000 -10.670380 -12.435075 44.989589 0.613042 -0.144032 94.411608 0.386580 -0.171519 55.901734 -0.000001 -0.000003 0.000001 -54.191455 -48.878791 45.566535 81.074004 -0.952092 -45.355065 -7.203034 -1.284144 -28.386751 -0.485974 1.566498 0.839999 0.000000 -0.000000 -0.000000 -85.279898 28.394729 -20.711189 94.363715 7.083284 0.265079 -19.876926 -3.453962 20.506036 -0.375768 -1.327075 -0.740025 0.000000 0.000000 0.000000 
7.062946 68.653076 149.401794 29.043501 -55.810142 34.961969 33.182452 -3.307663 -16.063929 -1.446987 5.422987 -0.586297 0.000000 0.000000 0.000000 2.406714 5.157370 0.405554 -12.821115 22.734734 -3.664004 -8.400043 19.486982 -13.749286 0.000000 -0.000000 0.000000 6.453764 -19.703320 -2.089434 0.000000 0.000000 0.000000 -28.300090 14.446689 -31.890126 -38.149540 -78.327517 -28.795678 19.674939 -3.700254 4.619356 -2.352380 -7.782004 8.381870 5.316289 27.671600 0.918244 5.008817 29.246313 15.006460 -0.000000 -0.000004 0.000001 13.458889 -1.821672 -6.718298 -0.137219 0.320251 -56.343733 -0.116616 0.307306 -45.568266 -0.000001 -0.000001 -0.000001 8.555464 -0.661868 -20.239131 0.378552 0.774927 -58.160550 0.429625 0.255577 -59.380579 0.000002 -0.000003 -0.000002 6.216530 2.906155 -36.097280 0.177706 0.449725 -61.011539 0.462600 0.894565 -60.568594 -0.000000 -0.000002 0.000000 -5.670849 7.532231 -35.748531 0.365963 0.352537 -79.566916 0.325166 0.307656 -65.847613 0.000001 0.000002 -0.000000 -0.249773 27.328311 20.070157 0.000000 0.000000 0.000000 -53.669554 -0.506368 18.926635 -36.260187 64.863841 33.429756 33.000254 2.782161 -14.695364 6.284337 -3.511803 -11.111018 7.496577 -24.599128 8.050751 5.368285 -34.784682 -16.872577 0.000000 0.000002 0.000000 13.724202 4.110448 16.230285 -0.393488 -0.386678 69.392482 -0.304399 -0.273053 49.751375 0.000004 0.000002 0.000004 5.941707 -0.302090 30.420761 0.769538 -0.607586 72.144857 0.635919 -0.063989 58.925941 0.000001 0.000003 -0.000001 1.063175 -7.487656 39.592551 0.624325 -0.259767 74.705522 0.621559 -0.716494 70.850003 -0.000000 0.000000 -0.000001 -11.394117 -13.005439 45.979208 0.622692 -0.124935 96.612917 0.396691 -0.163876 57.420389 0.000001 -0.000000 0.000003 -54.137548 -49.716462 45.302261 81.506580 -0.716000 -46.151698 -7.587827 -1.432811 -27.777672 -0.472352 1.549372 0.839778 0.000000 0.000000 -0.000000 -83.799318 27.705508 -22.135798 93.237833 7.492273 0.267282 -20.019271 -3.555525 20.770375 -0.374203 -1.309927 -0.747362 -0.000000 0.000001 -0.000000 
